<svg xmlns="http://www.w3.org/2000/svg" xmlns:svg="http://www.w3.org/2000/svg" id="svg2" width="245.213" height="168.293" version="1.1" viewBox="0 0 245.213 168.293" xml:space="preserve"><metadata id="metadata8"/><g id="g10" transform="matrix(1.3333333,0,0,-1.3333333,0,168.29333)"><g id="g12" transform="scale(0.1)"><path id="path14" fill="#2a51aa" fill-opacity="1" fill-rule="nonzero" stroke="none" d="m 1313.23,814.551 8.39,3.101 c -7.53,13.727 -12.36,29.649 -12.36,44.34 0,51.77 32.09,64.098 79.46,64.098 47.67,0 79.45,-14.692 79.45,-66.465 0,-12.324 -2.8,-22.422 -8.23,-34.645 h 51.94 v -31.414 h -198.65 z m 75.49,79.621 c -27.19,0 -50.77,-4.598 -50.77,-34.547 0,-15.023 3.09,-25.684 7.29,-34.645 h 87.29 c 1.79,3.426 6.93,17.485 6.93,34.645 0,29.949 -23.36,34.547 -50.74,34.547"/><path id="path16" fill="#2a51aa" fill-opacity="1" fill-rule="nonzero" stroke="none" d="M 1464.19,94.7305 V 62.4492 H 1290.42 V 5.75 h -29.11 v 146.051 h 29.11 V 94.7305 h 173.77"/><path id="path18" fill="#2a51aa" fill-opacity="1" fill-rule="nonzero" stroke="none" d="m 1356.82,274.531 c -14.22,0 -18.89,-11.328 -18.89,-25.582 0,-15.429 3.43,-28.09 7.33,-36.449 h 118.93 V 181.281 H 1261.27 V 212.5 h 57.7 c -5.5,11.129 -9.69,28.121 -9.69,40.238 0,37.95 18.09,53.176 48.6,53.176 h 106.31 l -0.47,-31.383 h -106.9"/><path id="path20" fill="#2a51aa" fill-opacity="1" fill-rule="nonzero" stroke="none" d="m 1362.63,593.695 c -55.1,0 -105.63,16.254 -105.63,83.086 0,68.895 50.53,82.852 105.63,82.852 54.94,0 105.51,-15.988 105.55,-82.852 0,-68.894 -50.64,-83.086 -105.55,-83.086 m 0,33.711 c 42.25,0 76.23,7.032 76.23,49.606 0,42.543 -33.98,48.972 -76.23,48.972 -42.3,0 -76.32,-6.863 -76.32,-49.339 0,-42.606 34.02,-49.239 76.32,-49.239"/><path id="path22" fill="#2a51aa" fill-opacity="1" fill-rule="nonzero" stroke="none" d="m 1337.91,1186.54 c 0,3.49 -0.53,24.85 19.39,24.85 h 106.9 v 31.51 h -106.34 c -30.48,-0.03 -48.57,-15.59 -48.57,-53.27 0,-14.72 4.3,-32.54 12.36,-45.97 l -8.4,-3.03 v -21.06 h 150.95 v 31.45 h -119 c -3.86,8.26 -7.26,20.22 -7.29,35.52"/><path id="path24" fill="#2a51aa" fill-opacity="1" fill-rule="nonzero" stroke="none" d="m 1402.08,986.566 c 26.35,2.332 36.88,13.954 36.88,44.344 0,14.15 -2.67,28.58 -8.5,46.37 h 27.58 c 7.57,-18.76 10.1,-36.75 10.07,-54.07 0.03,-52.304 -31.72,-69.026 -79.39,-69.026 -46.61,0 -79.42,18.425 -79.42,69.026 -0.03,53.47 38.95,61.4 80.75,61.5 h 12.03 z m -25.72,0.067 v 65.957 c -20.09,-0.09 -41.21,-5.16 -41.21,-30.48 0,-26.649 17.23,-34.012 41.21,-35.477"/><path id="path26" fill="#2a51aa" fill-opacity="1" fill-rule="nonzero" stroke="none" d="m 1402.08,367.297 c 26.36,2.359 36.85,14.019 36.85,44.375 0,14.125 -2.67,28.516 -8.46,46.308 h 27.58 c 7.53,-18.695 10.09,-36.785 10.09,-54.039 -0.03,-52.336 -31.75,-68.996 -79.42,-68.996 -46.6,0 -79.42,18.391 -79.42,68.996 0,53.536 38.95,61.532 80.76,61.532 h 12.02 z m -24.35,0.469 v 65.988 c -20.09,-0.098 -41.24,-5.16 -41.24,-30.547 0,-26.613 17.25,-34.012 41.24,-35.441"/><path id="path28" fill="#2a51aa" fill-opacity="1" fill-rule="nonzero" stroke="none" d="m 1587.86,130.289 h 128.63 c 45.57,0 49.01,-27.348 49.01,-44.2695 0,-16.9297 -3.5,-44.1797 -49.04,-44.1406 h -128.6 V 10.6914 l 132.6,-0.0312 c 65.23,-0.0586 75.42,46.9101 75.42,75.3593 0.03,28.4495 -10.19,75.5195 -75.42,75.5195 l -132.6,-0.027 v -31.223"/><path id="path30" fill="#2a51aa" fill-opacity="1" fill-rule="nonzero" stroke="none" d="m 1596.51,378.145 c 11.39,0.035 20.42,-9.125 20.42,-20.586 0,-11.461 -9.03,-20.59 -20.42,-20.59 -11.62,0 -20.62,9.129 -20.62,20.59 0,11.496 8.96,20.586 20.62,20.586"/><path id="path32" fill="#2a51aa" fill-opacity="1" fill-rule="nonzero" stroke="none" d="m 1762.45,342.102 h -121.9 v 31.144 l 119.07,0.035 c 5.43,0 7.82,0.332 7.82,8.629 v 5.297 h 27.42 c 0.44,-3.531 0.6,-7.262 0.6,-14.492 0,-18.188 -8.96,-30.649 -33.01,-30.613"/><path id="path34" fill="#2a51aa" fill-opacity="1" fill-rule="nonzero" stroke="none" d="m 1762.43,946.301 h -121.86 v 31.215 l 119.1,0.035 c 5.36,0 7.82,0.363 7.82,8.594 l -0.03,5.226 h 27.39 c 0.43,-3.398 0.63,-7.195 0.63,-14.457 0,-18.152 -9,-30.613 -33.05,-30.613"/><path id="path36" fill="#2a51aa" fill-opacity="1" fill-rule="nonzero" stroke="none" d="m 1640.59,511.598 -0.03,33.875 154.88,-58.996 v -25.45 l -154.88,-59.304 v 34.05 l 117.56,37.879 -117.53,37.946"/><path id="path38" fill="#2a51aa" fill-opacity="1" fill-rule="nonzero" stroke="none" d="m 1729.51,587.145 c 26.35,2.363 36.81,13.722 36.81,43.339 0,13.825 -2.63,27.883 -8.46,45.176 h 27.51 c 7.64,-18.293 10.1,-35.851 10.1,-52.738 0,-51.035 -31.75,-67.297 -79.35,-67.297 -46.61,0 -79.49,18.023 -79.49,67.297 0,52.207 39.01,60.066 80.75,60 l 12.13,-0.035 z m -25.79,64.925 c -20.08,-0.035 -41.21,-5.027 -41.21,-30.144 0,-26.391 17.19,-33.719 41.21,-35.086 v 65.23"/><path id="path40" fill="#2a51aa" fill-opacity="1" fill-rule="nonzero" stroke="none" d="m 1667.63,792.266 c -1.17,-6.196 -1.5,-13.028 -1.5,-20.887 0,-11.563 2.56,-21.656 6.29,-29.484 h 119.37 v -31.082 h -151.41 v 20.82 l 8.43,3.031 c -7.23,9.43 -11.9,26.52 -11.9,37.481 0,6.625 0,14.492 1.3,20.152 l 29.42,-0.031"/><path id="path42" fill="#2a51aa" fill-opacity="1" fill-rule="nonzero" stroke="none" d="m 1746.04,921.07 c 24.08,0 49.41,-15.023 49.41,-61.5 0,-14.492 -3.87,-36.343 -8.43,-47.504 l -29.29,-0.035 c 4.27,12.063 9.06,28.887 9.06,47.844 0,24.219 -10.29,31.18 -20.48,31.18 -10.06,0 -16.69,-3.598 -18.83,-27.051 -3.89,-44.41 -20.55,-53.402 -42.94,-53.402 -22.58,0 -47.94,14.054 -47.94,57.597 0,13.793 1.94,30.317 8.87,45.977 l 28.61,-0.035 c -4.83,-14.727 -8.79,-28.489 -8.79,-46.243 0,-23.082 8.56,-27.914 19.32,-27.914 8.73,0 13.22,4.5 15.36,27.317 4.1,43.64 19.39,53.769 46.07,53.769"/><path id="path44" fill="#2a51aa" fill-opacity="1" fill-rule="nonzero" stroke="none" d="m 1793.44,1102.87 c 1.43,-7 2,-17.19 2,-28.72 0,-24.49 -12.56,-43.61 -42.21,-43.61 l -86.05,-0.03 v -26.29 h -24.98 l -1.64,26.29 h -38.01 l -4.3,30.62 h 42.31 l 0.03,41.57 h 26.59 v -41.57 h 82.29 c 12.72,0 17.42,6.82 17.42,22.55 0.03,6.09 -0.53,16.45 -1.03,19.19 h 27.58"/><path id="path46" fill="#2a51aa" fill-opacity="1" fill-rule="nonzero" stroke="none" d="m 1640.55,1262.16 v -32.28 l 108.97,-37.68 -108.97,-32.81 v -34.68 l 143.78,52.57 54.77,-21.26 v 29.22 l -198.55,76.92"/><path id="path48" fill="#2a51aa" fill-opacity="1" fill-rule="nonzero" stroke="none" d="m 1665.53,258.34 c 0,3.441 -0.53,24.223 19.29,24.223 h 106.97 v 30.851 h -106.3 c -30.49,0 -48.61,-15.262 -48.61,-52.035 0,-14.43 4.27,-31.848 12.33,-44.981 l -8.43,-2.929 v -20.547 h 151.01 v 30.637 h -119.03 c -3.9,8.101 -7.23,19.832 -7.23,34.781"/><path id="path50" fill="#2a51aa" fill-opacity="1" fill-rule="nonzero" stroke="none" d="m 1596.51,984.883 c 11.39,0 20.42,-9.098 20.42,-20.586 0,-11.492 -9.03,-20.625 -20.42,-20.625 -11.62,0 -20.62,9.133 -20.62,20.625 0,11.523 9,20.586 20.62,20.586"/><path id="path52" fill="#2a51aa" fill-opacity="1" fill-rule="nonzero" stroke="none" d="M 462.969,636.801 C 333.176,602.988 201.184,679.313 168.102,807.27 c -33.043,127.96 45.343,259.12 175.132,292.94 129.762,33.81 261.75,-42.55 294.797,-170.507 C 671.082,801.742 592.66,670.586 462.969,636.801 M 1002.72,1253.55 H 63.7266 c -29.2461,0 -63.73050625,-28.69 -63.73050625,-58.57 V 511.875 C -0.00390625,211.852 237.828,0.0117188 531.16,0.0117188 c 293.434,0 531.26,211.8402812 531.26,511.8632812 v 680.045 c 0,29.88 -30.48,61.63 -59.7,61.63"/></g></g></svg>